<svg height="512" viewBox="0 0 58 58" width="512" xmlns="http://www.w3.org/2000/svg"><g id="Page-1" fill="none" fill-rule="evenodd"><g id="006---Witch-Hat-And-Broom" fill-rule="nonzero"><path id="Shape" d="m24.963 52h32.037c.5522847 0 1 .4477153 1 1v2c0 .5522847-.4477153 1-1 1h-32.037z" fill="#9c6a43"/><path id="Shape" d="m41.62 29.7c9.7 1.13 16.38 3.52 16.38 6.3 0 3.87-12.98 7-29 7s-29-3.13-29-7c0-2.7 6.3-5.03 15.53-6.2z" fill="#2c3e50"/><path id="Shape" d="m15.48 30.18c2.7597122.8995003 5.6227438 1.4438796 8.52 1.62v5c-2.8073541-.1755813-5.5836865-.6858625-8.27-1.52-.432459-.1514038-.7106835-.5728322-.68-1.03.06-.81.19-2.25.43-4.07z" fill="#e9931f"/><path id="Shape" d="m42.12 35.33c-2.6419913.7970571-5.3662561 1.2902429-8.12 1.47v-5c2.6454663-.1708045 5.264345-.630198 7.81-1.37l.96 3.69c.1315991.5110726-.151224 1.0375587-.65 1.21z" fill="#e9931f"/><path id="Shape" d="m55 4s-2 5-7 5c-2.249815.1069308-4.4826309-.4382513-6.43-1.57l-4.19 4.2-.38.37v.01l.59 2.23 4.22 16.19c-2.545655.739802-5.1645337 1.1991955-7.81 1.37h-10c-2.8972562-.1761204-5.7602878-.7204997-8.52-1.62.76-5.86 2.68-15.73 7.25-21.82.1792004-.23648556.4078541-.43101186.67-.57l13.72-7.55c.5377683-.29187772 1.1805231-.31773568 1.74-.07 2.3 1.01 8.9 3.83 16.14 3.83z" fill="#35495e"/><path id="Shape" d="m21 23.368c-.0822423-.0001749-.1641648-.0102473-.244-.03-.5357071-.1342174-.8611901-.677286-.727-1.213.8940815-4.1284578 2.5332036-8.059369 4.837-11.6.2050726-.2965477.5539023-.459742.912972-.4271189s.6727767.2560117.8210472.5846622.1081446.7116707-.1050192 1.0024567c-2.1576843 3.3394124-3.6912142 7.042789-4.526 10.93-.1129151.4429815-.511854.7529929-.969.753z" fill="#3f5c6c"/><path id="Shape" d="m37.59 14.24-.8.8c-.1875741.1889094-.4438082.2935684-.71.29-.2632254.0033976-.5162972-.1014464-.7-.29-.3877236-.3900375-.3877236-1.0199625 0-1.41l1.62-1.62z" fill="#2c3e50"/><path id="Shape" d="m34 29.87v6.93c-1.58.13-3.26.2-5 .2s-3.42-.07-5-.2v-6.93c.0003034-.2766417.1158808-.5406426.3189398-.7285196s.4752281-.2826323.7510602-.2614804c1.26.08 2.58.12 3.93.12s2.67-.04 3.93-.12c.2758321-.0211519.5480012.0736034.7510602.2614804s.3186364.4518779.3189398.7285196z" fill="#e7bb19"/><path id="Shape" d="m26 51.635v4.73c-.0000961.564424-.2923581 1.0885771-.772459 1.3853557-.4801009.2967785-1.0796164.3238853-1.584541.0716443l-3.643-1.822h-4c-1.2957875 1.3631356-3.1215776 2.0934517-5 2-6.049 0-9.239-1.143-10.435-1.7-.34719669-.1647477-.56752122-.5157071-.565-.9v-2.8c-.00252122-.3842929.21780331-.7352523.565-.9 1.196-.557 4.386-1.7 10.435-1.7 1.8784224-.0934517 3.7042125.6368644 5 2h4l3.643-1.822c.5049246-.252241 1.1044401-.2251342 1.584541.0716443.4801009.2967786.7723629.8209317.772459 1.3853557z" fill="#c68e6a"/><path id="Shape" d="m16 55h-5c-.5522847 0-1-.4477153-1-1s.4477153-1 1-1h5c.5522847 0 1 .4477153 1 1s-.4477153 1-1 1z" fill="#c28052"/><path id="Shape" d="m7 55h-1c-.55228475 0-1-.4477153-1-1s.44771525-1 1-1h1c.55228475 0 1 .4477153 1 1s-.44771525 1-1 1z" fill="#c28052"/><path id="Shape" d="m30 34h-2c-.5522847 0-1-.4477153-1-1s.4477153-1 1-1h2c.5522847 0 1 .4477153 1 1s-.4477153 1-1 1z" fill="#e9931f"/><path id="Rectangle-path" d="m16 52h4v4h-4z" fill="#9c6a43"/></g></g></svg>